<svg width="32" height="32" viewBox="0 0 32 32" fill="none" xmlns="http://www.w3.org/2000/svg">
<path opacity="0.2" d="M3.99999 16C3.99999 13.6266 4.70378 11.3065 6.02236 9.33316C7.34094 7.35977 9.21508 5.8217 11.4078 4.91345C13.6005 4.0052 16.0133 3.76756 18.3411 4.23058C20.6688 4.6936 22.807 5.83649 24.4853 7.51472C26.1635 9.19295 27.3064 11.3311 27.7694 13.6589C28.2324 15.9867 27.9948 18.3995 27.0865 20.5922C26.1783 22.7849 24.6402 24.6591 22.6668 25.9776C20.6934 27.2962 18.3734 28 16 28C12.8174 28 9.76515 26.7357 7.51471 24.4853C5.26428 22.2348 3.99999 19.1826 3.99999 16Z" fill="#057E72"/>
<path d="M16 29C18.5712 29 21.0846 28.2376 23.2224 26.8091C25.3602 25.3806 27.0265 23.3503 28.0104 20.9749C28.9944 18.5994 29.2518 15.9856 28.7502 13.4638C28.2486 10.9421 27.0105 8.62569 25.1924 6.80761C23.3743 4.98953 21.0579 3.7514 18.5362 3.24979C16.0144 2.74818 13.4005 3.00563 11.0251 3.98957C8.64967 4.97351 6.61935 6.63975 5.19089 8.77759C3.76243 10.9154 2.99999 13.4288 2.99999 16C3.00363 19.4467 4.37444 22.7512 6.81163 25.1884C9.24881 27.6256 12.5533 28.9964 16 29ZM16 5C18.1756 5 20.3023 5.64514 22.1113 6.85383C23.9202 8.06253 25.3301 9.78049 26.1627 11.7905C26.9952 13.8005 27.2131 16.0122 26.7886 18.146C26.3642 20.2798 25.3165 22.2398 23.7782 23.7782C22.2398 25.3166 20.2798 26.3642 18.146 26.7886C16.0122 27.2131 13.8005 26.9952 11.7905 26.1627C9.78049 25.3301 8.06252 23.9202 6.85383 22.1113C5.64513 20.3023 4.99999 18.1756 4.99999 16C5.0033 13.0836 6.16329 10.2877 8.22547 8.22548C10.2877 6.1633 13.0836 5.00331 16 5ZM11.2925 17.7075C11.1996 17.6146 11.1259 17.5043 11.0756 17.3829C11.0253 17.2615 10.9994 17.1314 10.9994 17C10.9994 16.8686 11.0253 16.7385 11.0756 16.6171C11.1259 16.4957 11.1996 16.3854 11.2925 16.2925C11.3854 16.1996 11.4957 16.1259 11.6171 16.0756C11.7385 16.0253 11.8686 15.9994 12 15.9994C12.1314 15.9994 12.2615 16.0253 12.3829 16.0756C12.5043 16.1259 12.6146 16.1996 12.7075 16.2925L15 18.5863V11C15 10.7348 15.1054 10.4804 15.2929 10.2929C15.4804 10.1054 15.7348 10 16 10C16.2652 10 16.5196 10.1054 16.7071 10.2929C16.8946 10.4804 17 10.7348 17 11V18.5863L19.2925 16.2925C19.4801 16.1049 19.7346 15.9994 20 15.9994C20.2654 15.9994 20.5199 16.1049 20.7075 16.2925C20.8951 16.4801 21.0006 16.7346 21.0006 17C21.0006 17.2654 20.8951 17.5199 20.7075 17.7075L16.7075 21.7075C16.6146 21.8005 16.5043 21.8742 16.3829 21.9246C16.2615 21.9749 16.1314 22.0008 16 22.0008C15.8686 22.0008 15.7385 21.9749 15.6171 21.9246C15.4957 21.8742 15.3854 21.8005 15.2925 21.7075L11.2925 17.7075Z" fill="#057E72"/>
</svg>
