<svg width="14" height="14" viewBox="0 0 14 14" fill="none" xmlns="http://www.w3.org/2000/svg">
<path fill-rule="evenodd" clip-rule="evenodd" d="M7.3172 0.540528H7.35561C7.7249 0.540522 8.0306 0.540517 8.28303 0.562016C8.54757 0.584547 8.78662 0.632646 9.01719 0.7468C9.42796 0.950168 9.68764 1.27336 9.86994 1.59751C10.0113 1.84879 10.121 2.13108 10.214 2.37033C10.2359 2.42679 10.2569 2.48085 10.2772 2.53155L10.3667 2.75526C10.4113 2.86684 10.4336 2.92263 10.4801 2.95416C10.5266 2.98568 10.5868 2.98577 10.7073 2.98596C11.2481 2.98681 11.6547 2.99299 11.9777 3.0375C12.3953 3.09505 12.6973 3.2187 13.0113 3.45956C13.1702 3.58153 13.3125 3.72379 13.4344 3.88274C13.6954 4.22281 13.8059 4.61926 13.8579 5.08037C13.9082 5.52633 13.9082 6.08549 13.9082 6.77899V9.59113C13.9082 10.4272 13.9082 11.101 13.8369 11.631C13.7629 12.1813 13.6047 12.6446 13.2367 13.0126C12.8687 13.3806 12.4054 13.5388 11.8552 13.6128C11.3252 13.6841 10.6513 13.684 9.81525 13.684H4.85756C4.02151 13.684 3.34763 13.6841 2.81763 13.6128C2.26737 13.5388 1.80407 13.3806 1.4361 13.0126C1.06813 12.6446 0.909864 12.1813 0.835883 11.631C0.764628 11.1011 0.764637 10.4272 0.764649 9.59114V6.77897C0.764641 6.08549 0.764635 5.52632 0.814909 5.08037C0.866892 4.61926 0.977437 4.22281 1.23838 3.88274C1.36034 3.72379 1.50261 3.58153 1.66155 3.45956C1.97546 3.2187 2.27748 3.09505 2.69513 3.0375C3.01815 2.99299 3.42475 2.98681 3.9655 2.98596C4.08597 2.98577 4.1462 2.98568 4.19268 2.95416C4.23917 2.92263 4.26149 2.86684 4.30612 2.75526L4.3956 2.53155C4.41588 2.48085 4.43689 2.4268 4.45883 2.37035C4.55182 2.1311 4.66155 1.84879 4.80287 1.59751C4.98517 1.27337 5.24485 0.950168 5.65561 0.7468C5.88619 0.632646 6.12523 0.584547 6.38978 0.562016C6.64221 0.540517 6.94791 0.540522 7.3172 0.540528ZM4.8911 8.33463C4.8911 6.98413 5.9859 5.88933 7.3364 5.88933C8.6869 5.88933 9.7817 6.98413 9.7817 8.33463C9.7817 9.68514 8.6869 10.7799 7.3364 10.7799C5.9859 10.7799 4.8911 9.68514 4.8911 8.33463ZM7.33367 2.833C6.99755 2.833 6.72507 3.1067 6.72507 3.44432C6.72507 3.78067 7.00425 4.05565 7.33913 4.05565C7.67525 4.05565 7.94773 3.78195 7.94773 3.44432C7.94773 3.10798 7.66855 2.833 7.33367 2.833Z" fill="white"/>
</svg>
