<svg width="10" height="12" viewBox="0 0 10 12" fill="none" xmlns="http://www.w3.org/2000/svg">
<path d="M5.00782 0.861816C3.91419 0.863107 2.86573 1.29812 2.09242 2.07143C1.31912 2.84473 0.884105 3.89319 0.882815 4.98682C0.88181 5.88048 1.17371 6.74984 1.71382 7.46182C1.71382 7.46182 1.82632 7.60994 1.84469 7.63132L5.00782 11.3618L8.17244 7.62944C8.18894 7.60957 8.30182 7.46182 8.30182 7.46182L8.30219 7.46069C8.84193 6.74897 9.13368 5.88005 9.13282 4.98682C9.13153 3.89319 8.69651 2.84473 7.92321 2.07143C7.1499 1.29812 6.10144 0.863107 5.00782 0.861816ZM5.00782 6.48682C4.71114 6.48682 4.42113 6.39884 4.17446 6.23402C3.92779 6.0692 3.73553 5.83493 3.622 5.56084C3.50846 5.28675 3.47876 4.98515 3.53664 4.69418C3.59452 4.40321 3.73738 4.13593 3.94715 3.92616C4.15693 3.71638 4.42421 3.57352 4.71518 3.51564C5.00615 3.45776 5.30775 3.48747 5.58184 3.601C5.85593 3.71453 6.0902 3.90679 6.25502 4.15346C6.41984 4.40013 6.50782 4.69014 6.50782 4.98682C6.50732 5.38449 6.34912 5.76573 6.06793 6.04693C5.78673 6.32812 5.40549 6.48632 5.00782 6.48682Z" fill="#1D1D1D" fill-opacity="0.8"/>
</svg>
