<svg width="22" height="19" viewBox="0 0 22 19" fill="none" xmlns="http://www.w3.org/2000/svg">
<path d="M21.5 6.80078C21.5 13.3633 11.7697 18.6752 11.3553 18.8945C11.2461 18.9533 11.124 18.984 11 18.984C10.876 18.984 10.7539 18.9533 10.6447 18.8945C10.2303 18.6752 0.5 13.3633 0.5 6.80078C0.501737 5.25974 1.11468 3.78232 2.20436 2.69264C3.29404 1.60296 4.77146 0.990018 6.3125 0.988281C8.24844 0.988281 9.94344 1.82078 11 3.22797C12.0566 1.82078 13.7516 0.988281 15.6875 0.988281C17.2285 0.990018 18.706 1.60296 19.7956 2.69264C20.8853 3.78232 21.4983 5.25974 21.5 6.80078Z" fill="#ED1822"/>
</svg>
