<svg width="22" height="20" viewBox="0 0 22 20" fill="none" xmlns="http://www.w3.org/2000/svg">
<path d="M15.6875 0.613281C13.8041 0.613281 12.1325 1.35672 11 2.63453C9.8675 1.35672 8.19594 0.613281 6.3125 0.613281C4.67208 0.615266 3.09942 1.2678 1.93947 2.42775C0.779518 3.5877 0.126985 5.16036 0.125 6.80078C0.125 13.5827 10.0447 19.0014 10.4666 19.2292C10.6305 19.3175 10.8138 19.3637 11 19.3637C11.1862 19.3637 11.3695 19.3175 11.5334 19.2292C11.9553 19.0014 21.875 13.5827 21.875 6.80078C21.873 5.16036 21.2205 3.5877 20.0605 2.42775C18.9006 1.2678 17.3279 0.615266 15.6875 0.613281ZM15.1728 13.9595C13.8671 15.0675 12.4714 16.0647 11 16.9408C9.52864 16.0647 8.13287 15.0675 6.82719 13.9595C4.79562 12.2167 2.375 9.55891 2.375 6.80078C2.375 5.75649 2.78984 4.75497 3.52827 4.01655C4.26669 3.27812 5.26821 2.86328 6.3125 2.86328C7.98125 2.86328 9.37813 3.74453 9.95844 5.16391C10.0429 5.37082 10.1871 5.54789 10.3726 5.67253C10.5581 5.79717 10.7765 5.86373 11 5.86373C11.2235 5.86373 11.4419 5.79717 11.6274 5.67253C11.8129 5.54789 11.9571 5.37082 12.0416 5.16391C12.6219 3.74453 14.0188 2.86328 15.6875 2.86328C16.7318 2.86328 17.7333 3.27812 18.4717 4.01655C19.2102 4.75497 19.625 5.75649 19.625 6.80078C19.625 9.55891 17.2044 12.2167 15.1728 13.9595Z" fill="#343330"/>
</svg>
