<svg width="32" height="33" viewBox="0 0 32 33" fill="none" xmlns="http://www.w3.org/2000/svg">
<path d="M6.52222 13.3191C6.52222 12.7826 6.95375 12.3477 7.48607 12.3477H12.6266C13.159 12.3477 13.5905 12.7826 13.5905 13.3191C13.5905 13.8556 13.159 14.2905 12.6266 14.2905H7.48607C6.95375 14.2905 6.52222 13.8556 6.52222 13.3191Z" fill="#057E72"/>
<path fill-rule="evenodd" clip-rule="evenodd" d="M28.2513 13.8385C28.1683 13.8334 28.0779 13.8335 27.9842 13.8335L27.9609 13.8335H24.2867C21.2581 13.8335 18.6667 16.1483 18.6667 19.1668C18.6667 22.1854 21.2581 24.5002 24.2867 24.5002H27.9609L27.9842 24.5002C28.0779 24.5002 28.1683 24.5002 28.2513 24.4951C29.4815 24.4197 30.5694 23.485 30.6608 22.1794C30.6668 22.0938 30.6668 22.0015 30.6667 21.916L30.6667 21.8928V16.4409L30.6667 16.4177C30.6668 16.3322 30.6668 16.2399 30.6608 16.1543C30.5694 14.8487 29.4815 13.9139 28.2513 13.8385ZM23.9609 20.589C24.7406 20.589 25.3726 19.9523 25.3726 19.1668C25.3726 18.3813 24.7406 17.7446 23.9609 17.7446C23.1812 17.7446 22.5491 18.3813 22.5491 19.1668C22.5491 19.9523 23.1812 20.589 23.9609 20.589Z" fill="#057E72"/>
<path opacity="0.5" d="M28.186 13.8352C28.186 12.261 28.1287 10.5725 27.1224 9.36194C27.0253 9.24509 26.9219 9.13162 26.8118 9.0215C25.8139 8.02368 24.5487 7.58086 22.9854 7.37068C21.4665 7.16647 19.5257 7.16648 17.0753 7.1665H14.2582C11.8079 7.16648 9.867 7.16647 8.34805 7.37069C6.78482 7.58086 5.51956 8.02368 4.52174 9.0215C3.52392 10.0193 3.0811 11.2846 2.87093 12.8478C2.66671 14.3668 2.66673 16.3076 2.66675 18.7579V18.9084C2.66673 21.3587 2.66671 23.2996 2.87093 24.8185C3.0811 26.3818 3.52392 27.647 4.52174 28.6448C5.51956 29.6427 6.78482 30.0855 8.34805 30.2957C9.86699 30.4999 11.8078 30.4999 14.2581 30.4998H17.0753C19.5256 30.4999 21.4665 30.4999 22.9854 30.2957C24.5487 30.0855 25.8139 29.6427 26.8118 28.6448C27.0844 28.3722 27.316 28.079 27.5129 27.7646C28.1135 26.8053 28.186 25.6296 28.186 24.4978C28.1217 24.4999 28.0539 24.4999 27.9843 24.4998L24.2867 24.4998C21.2581 24.4998 18.6667 22.1851 18.6667 19.1665C18.6667 16.1479 21.2581 13.8332 24.2867 13.8332L27.9842 13.8332C28.0539 13.8332 28.1217 13.8331 28.186 13.8352Z" fill="#057E72"/>
<path d="M13.4687 3.92932L10.6668 5.82321L8.35571 7.36966C9.87352 7.16647 11.812 7.16648 14.2582 7.1665H17.0753C19.5257 7.16648 21.4665 7.16647 22.9854 7.37068C23.291 7.41176 23.5851 7.46173 23.8681 7.52299L21.3334 5.83317L18.5167 3.92932C17.012 2.91223 14.9734 2.91223 13.4687 3.92932Z" fill="#057E72"/>
</svg>
